<svg width="22" height="26" viewBox="0 0 22 26" fill="none" xmlns="http://www.w3.org/2000/svg">
<path d="M5.79289 25.5134C5.27618 25.1724 4.81823 24.751 4.43664 24.2654C4.01689 23.7642 3.62798 23.2384 3.27203 22.6908C2.43672 21.4767 1.78165 20.1499 1.32692 18.751C0.780648 17.126 0.516113 15.5684 0.516113 14.045C0.516113 12.3436 0.887118 10.8583 1.61275 9.61033C2.15064 8.63488 2.94149 7.81972 3.90347 7.24921C4.83574 6.67474 5.90693 6.36037 7.00418 6.33921C7.38829 6.33921 7.80188 6.39446 8.24086 6.50008C8.55618 6.58864 8.94028 6.72839 9.40957 6.90227C10.0066 7.13058 10.335 7.27033 10.4464 7.30446C10.7961 7.43121 11.0901 7.48645 11.3211 7.48645C11.4964 7.48645 11.7437 7.43121 12.0246 7.34671C12.1827 7.29146 12.4808 7.19395 12.9075 7.01277C13.3301 6.86002 13.6626 6.72921 13.9271 6.63171C14.3325 6.51308 14.7248 6.40339 15.0745 6.34814C15.4891 6.2833 15.9099 6.26612 16.3284 6.29696C17.0537 6.34399 17.7682 6.49647 18.4488 6.74952C19.5618 7.19396 20.4619 7.88783 21.1318 8.87421C20.8487 9.04735 20.5829 9.24705 20.3382 9.47058C19.8056 9.93905 19.3518 10.489 18.9943 11.0996C18.5269 11.9341 18.2845 12.8742 18.2907 13.8288C18.3079 15.0013 18.611 16.034 19.208 16.9269C19.6469 17.5887 20.2174 18.1546 20.8845 18.5901C21.226 18.8184 21.52 18.9752 21.8018 19.0808C21.6699 19.4871 21.529 19.8803 21.3628 20.2703C20.9857 21.1449 20.5287 21.9834 19.9975 22.7753C19.5241 23.457 19.1531 23.9648 18.8714 24.3028C18.4324 24.8187 18.0098 25.2128 17.5831 25.4874C17.1138 25.7961 16.5594 25.9611 15.9959 25.9611C15.6143 25.9756 15.2328 25.9298 14.8657 25.8254C14.5504 25.7198 14.2384 25.6052 13.9312 25.4744C13.6119 25.3289 13.2827 25.2059 12.946 25.1063C12.1136 24.8942 11.2409 24.8928 10.4079 25.1023C10.0664 25.1998 9.73798 25.3135 9.41366 25.4533C8.95748 25.6434 8.65446 25.771 8.47919 25.8254C8.12948 25.927 7.76667 25.9903 7.39976 26.0115C6.83219 26.0115 6.30312 25.8506 5.77897 25.5248L5.79289 25.5134ZM13.2785 5.5137C12.5365 5.88177 11.8281 6.03858 11.1245 5.98739C11.014 5.28458 11.1245 4.56552 11.4186 3.77821C11.6689 3.1112 12.0387 2.4946 12.5103 1.95821C13.0082 1.39354 13.6125 0.930698 14.2891 0.595643C15.0098 0.22758 15.697 0.0285176 16.3538 -0.000732422C16.439 0.735393 16.3538 1.45933 16.0811 2.24177C15.8287 2.93344 15.4595 3.57746 14.9894 4.14627C14.5095 4.71171 13.9206 5.17634 13.2572 5.51289L13.2785 5.5137Z" fill="black"/>
</svg>
