<svg width="27" height="26" viewBox="0 0 27 26" fill="none" xmlns="http://www.w3.org/2000/svg">
<path d="M6.86759 15.4656L6.03826 18.537L3.0071 18.6006C2.10123 16.9338 1.5874 15.0266 1.5874 13C1.5874 11.0403 2.06782 9.1922 2.91938 7.56494H2.92004L5.61862 8.05576L6.80076 10.7169C6.55334 11.4325 6.41849 12.2007 6.41849 13C6.41858 13.8675 6.57698 14.6987 6.86759 15.4656Z" fill="#FBBB00"/>
<path d="M25.2043 10.7922C25.3411 11.5071 25.4125 12.2455 25.4125 13C25.4125 13.8461 25.3228 14.6715 25.152 15.4676C24.5721 18.1767 23.0568 20.5422 20.9577 22.2163L20.957 22.2156L17.558 22.0436L17.077 19.0643C18.4698 18.2539 19.5583 16.9857 20.1317 15.4676H13.7617V10.7922H20.2247H25.2043Z" fill="#518EF8"/>
<path d="M20.9574 22.2158L20.9581 22.2164C18.9166 23.8444 16.3233 24.8184 13.5003 24.8184C8.96364 24.8184 5.0194 22.3028 3.00732 18.6009L6.86781 15.4658C7.87382 18.1294 10.4638 20.0256 13.5003 20.0256C14.8054 20.0256 16.0281 19.6755 17.0773 19.0645L20.9574 22.2158Z" fill="#28B446"/>
<path d="M21.1039 3.90265L17.2447 7.03706C16.1588 6.3637 14.8753 5.97471 13.5001 5.97471C10.3949 5.97471 7.75648 7.95781 6.80086 10.7169L2.92009 7.565H2.91943C4.90205 3.77279 8.89604 1.18188 13.5001 1.18188C16.3905 1.18188 19.0408 2.20333 21.1039 3.90265Z" fill="#F14336"/>
</svg>
