<svg width="23" height="26" viewBox="0 0 23 26" fill="none" xmlns="http://www.w3.org/2000/svg">
  <path d="M1.4834 12.576C1.4834 10.6525 1.4834 9.6908 1.87222 8.84541C2.26104 8.00003 2.99125 7.37414 4.45167 6.12235L5.86834 4.90806C8.50804 2.64546 9.82789 1.51416 11.4001 1.51416C12.9722 1.51416 14.2921 2.64546 16.9318 4.90806L18.3485 6.12235C19.8089 7.37414 20.5391 8.00003 20.9279 8.84541C21.3167 9.6908 21.3167 10.6525 21.3167 12.576V18.5833C21.3167 21.2545 21.3167 22.5902 20.4869 23.4201C19.657 24.2499 18.3214 24.2499 15.6501 24.2499H7.15007C4.47877 24.2499 3.14313 24.2499 2.31326 23.4201C1.4834 22.5902 1.4834 21.2545 1.4834 18.5833V12.576Z" stroke="currentColor" stroke-width="2"/>
</svg>
