<svg width="11" height="10" viewBox="0 0 11 10" fill="none" xmlns="http://www.w3.org/2000/svg">
<path d="M5.01927 8.22828C5.24719 8.08348 5.53827 8.08348 5.7662 8.22828L7.41937 9.27858C7.9427 9.61107 8.60692 9.14539 8.47277 8.54007L8.00941 6.44929C7.95544 6.2058 8.0358 5.95205 8.22008 5.784L9.79369 4.34903C10.2415 3.94063 9.99009 3.19468 9.38638 3.14077L7.3831 2.96186C7.12241 2.93858 6.89678 2.7711 6.79902 2.52831L6.03876 0.640132C5.80453 0.0583806 4.98094 0.05838 4.7467 0.640131L3.98645 2.52831C3.88869 2.7711 3.66306 2.93858 3.40237 2.96186L1.39909 3.14077C0.795379 3.19468 0.543917 3.94063 0.991777 4.34903L2.56539 5.784C2.74967 5.95205 2.83002 6.2058 2.77606 6.44929L2.3127 8.54007C2.17855 9.1454 2.84277 9.61107 3.36609 9.27858L5.01927 8.22828Z" fill="white"/>
</svg>
