<svg width="24" height="25" viewBox="0 0 24 25" fill="none" xmlns="http://www.w3.org/2000/svg">
<path d="M14.4141 3.14164L15.4091 3.04214V3.04214L14.4141 3.14164ZM14.2041 2.12808L13.3616 2.66675L13.3616 2.66675L14.2041 2.12808ZM14.8219 4.93393L14.1163 5.64255L14.1163 5.64255L14.8219 4.93393ZM15.5253 5.2253L15.5232 6.2253L15.5253 5.2253ZM17.081 4.24631L17.7142 5.02026L17.727 5.00978L17.7395 4.99888L17.081 4.24631ZM17.081 4.2463L16.4477 3.47234L16.4349 3.48282L16.4225 3.49372L17.081 4.2463ZM17.9461 3.67808L17.7312 2.70144L17.7312 2.70144L17.9461 3.67808ZM18.4719 3.70431L18.161 4.65473L18.161 4.65473L18.4719 3.70431ZM19.2762 4.3558L18.5691 5.0629V5.0629L19.2762 4.3558ZM20.2442 5.32372L19.5371 6.03083H19.5371L20.2442 5.32372ZM20.8957 6.12805L19.9453 6.43901V6.43902L20.8957 6.12805ZM20.9219 6.65386L21.8985 6.86872L21.8985 6.86871L20.9219 6.65386ZM20.3537 7.51902L19.5797 6.88579H19.5797L20.3537 7.51902ZM19.3747 9.07473L20.3746 9.07256V9.07256L19.3747 9.07473ZM19.666 9.77814L18.9574 10.4837L18.9574 10.4837L19.666 9.77814ZM21.4584 10.1859L21.3588 11.181H21.3588L21.4584 10.1859ZM22.472 10.3959L21.9333 11.2384L22.472 10.3959ZM22.8252 10.7862L21.9333 11.2384L21.9333 11.2384L22.8252 10.7862ZM22.8252 14.2138L21.9333 13.7618L21.9333 13.7618L22.8252 14.2138ZM22.4719 14.6043L21.9333 13.7618L21.9333 13.7618L22.4719 14.6043ZM21.4585 14.8142L21.558 15.8093H21.558L21.4585 14.8142ZM19.6666 15.2218L20.3751 15.9276V15.9276L19.6666 15.2218ZM19.3751 15.9256L18.3751 15.9237L19.3751 15.9256ZM20.3538 17.4808L19.5799 18.114L19.6115 18.1526L19.6467 18.1879L20.3538 17.4808ZM20.3538 17.4808L21.1278 16.8476L21.0962 16.809L21.061 16.7737L20.3538 17.4808ZM20.9219 18.3457L21.8985 18.1307L20.9219 18.3457ZM20.8957 18.8718L21.8461 19.1829L21.8461 19.1829L20.8957 18.8718ZM19.2763 20.6439L19.9834 21.351L19.9834 21.351L19.2763 20.6439ZM18.472 21.2954L18.783 22.2458L18.783 22.2458L18.472 21.2954ZM17.9462 21.3216L17.7313 22.2982L17.9462 21.3216ZM17.081 20.7534L17.7143 19.9794L17.7143 19.9794L17.081 20.7534ZM15.5253 19.7744L15.5232 18.7744H15.5232L15.5253 19.7744ZM14.8219 20.0658L15.5275 20.7744L14.8219 20.0658ZM14.4141 21.8583L13.4191 21.7588V21.7588L14.4141 21.8583ZM14.2041 22.8722L13.3616 22.3334L13.3616 22.3334L14.2041 22.8722ZM13.8139 23.2253L13.3616 22.3334L13.3616 22.3334L13.8139 23.2253ZM10.3861 23.2253L10.8383 22.3334L10.8383 22.3334L10.3861 23.2253ZM9.99575 22.8721L9.15323 23.4108L9.15324 23.4108L9.99575 22.8721ZM9.78578 21.8585L8.79074 21.958L9.78578 21.8585ZM9.37799 20.0662L10.0835 19.3575L10.0835 19.3575L9.37799 20.0662ZM8.6746 19.7748L8.67242 20.7748H8.67242L8.6746 19.7748ZM7.11885 20.7538L6.48557 19.9798L6.47691 19.9871L7.11885 20.7538ZM7.11883 20.7539L7.75211 21.5279L7.76077 21.5206L7.11883 20.7539ZM6.25365 21.3221L6.46848 22.2987L6.46848 22.2987L6.25365 21.3221ZM5.72787 21.2959L6.03882 20.3454L6.03882 20.3454L5.72787 21.2959ZM4.92351 20.6444L5.63062 19.9372V19.9372L4.92351 20.6444ZM3.95562 19.6765L3.24851 20.3836L3.24851 20.3836L3.95562 19.6765ZM3.30411 18.8721L2.35369 19.1831H2.35369L3.30411 18.8721ZM3.27788 18.3463L2.30124 18.1315L2.30124 18.1315L3.27788 18.3463ZM3.84613 17.4811L3.07217 16.8479L3.07217 16.8479L3.84613 17.4811ZM4.82515 15.9254L5.82515 15.9233L4.82515 15.9254ZM4.53378 15.222L3.82515 15.9276H3.82515L4.53378 15.222ZM2.74149 14.8142L2.84099 13.8192L2.79136 13.8142H2.74149V14.8142ZM2.74148 14.8142L2.64197 15.8093L2.6916 15.8142H2.74148V14.8142ZM1.72794 14.6043L1.18927 15.4468L1.18927 15.4468L1.72794 14.6043ZM1.37466 14.2139L2.2666 13.7618L2.2666 13.7618L1.37466 14.2139ZM1.37471 10.7861L2.2666 11.2384L2.2666 11.2384L1.37471 10.7861ZM1.72784 10.3959L2.2666 11.2384L2.2666 11.2384L1.72784 10.3959ZM2.74162 10.1859L2.64212 9.19087H2.64212L2.74162 10.1859ZM4.5343 9.778L3.82556 9.07253H3.82556L4.5343 9.778ZM4.82556 9.07484L3.82556 9.07253L4.82556 9.07484ZM3.84632 7.51872L4.62028 6.88548H4.62028L3.84632 7.51872ZM3.2779 6.65322L4.25458 6.43852L3.2779 6.65322ZM3.30411 6.12771L2.35364 5.81689L2.35364 5.81689L3.30411 6.12771ZM3.9558 5.32309L4.6629 6.0302L4.6629 6.0302L3.9558 5.32309ZM4.92356 4.35533L5.63067 5.06244L5.63067 5.06244L4.92356 4.35533ZM5.72792 3.70381L5.41697 2.75338L5.72792 3.70381ZM6.2537 3.67759L6.03887 4.65424L6.03887 4.65424L6.2537 3.67759ZM7.11898 4.24591L6.48574 5.01986L6.48574 5.01986L7.11898 4.24591ZM8.67446 5.22488L8.67247 4.22488H8.67247L8.67446 5.22488ZM9.37817 4.93339L10.0839 5.64191L10.0839 5.6419L9.37817 4.93339ZM9.7858 3.1415L10.7808 3.241V3.241L9.7858 3.1415ZM9.99568 2.12818L10.8383 2.66675L9.99568 2.12818ZM10.3862 1.77476L9.93414 0.882772L9.93414 0.882773L10.3862 1.77476ZM13.8138 1.77481L13.3616 2.66675L13.3616 2.66675L13.8138 1.77481ZM15.4091 3.04214C15.3837 2.78797 15.3594 2.53663 15.3205 2.32582C15.2791 2.10173 15.2085 1.84258 15.0467 1.58941L13.3616 2.66675C13.3285 2.61493 13.3358 2.59183 13.3537 2.68882C13.374 2.79908 13.3903 2.95384 13.4191 3.24114L15.4091 3.04214ZM15.5274 4.22531C15.6184 4.31592 15.5896 4.37144 15.542 4.13261C15.4964 3.90346 15.4626 3.57638 15.4091 3.04214L13.4191 3.24114C13.4683 3.73328 13.5114 4.17598 13.5805 4.5232C13.6478 4.86074 13.7715 5.29922 14.1163 5.64255L15.5274 4.22531ZM15.5274 4.22531L15.5274 4.22531L14.1163 5.64255C14.49 6.01472 14.9957 6.22417 15.5232 6.2253L15.5274 4.22531ZM16.4477 3.47235C16.0322 3.81234 15.777 4.01968 15.5827 4.14945C15.3802 4.2847 15.399 4.22503 15.5274 4.22531L15.5232 6.2253C16.0097 6.22635 16.4073 6.00377 16.6935 5.81262C16.9879 5.61599 17.3314 5.33345 17.7142 5.02026L16.4477 3.47235ZM16.4225 3.49372L16.4225 3.49373L17.7395 4.99888L17.7395 4.99888L16.4225 3.49372ZM17.7312 2.70144C17.4378 2.766 17.2046 2.89933 17.0169 3.02853C16.8403 3.15008 16.6454 3.3106 16.4477 3.47234L17.7142 5.02026C17.9377 4.83743 18.0586 4.73951 18.151 4.67593C18.2322 4.62001 18.221 4.64151 18.161 4.65473L17.7312 2.70144ZM18.7829 2.75389C18.4433 2.64278 18.0802 2.62467 17.7312 2.70144L18.161 4.65473L18.161 4.65473L18.7829 2.75389ZM19.9834 3.64869C19.8027 3.46808 19.6248 3.28896 19.4612 3.15044C19.2872 3.0032 19.0685 2.84734 18.7829 2.75389L18.161 4.65473C18.1025 4.6356 18.0935 4.6131 18.1688 4.67682C18.2544 4.74927 18.365 4.85874 18.5691 5.0629L19.9834 3.64869ZM20.9513 4.61661L19.9834 3.64869L18.5691 5.0629L19.5371 6.03083L20.9513 4.61661ZM21.8461 5.81708C21.7526 5.53148 21.5968 5.31274 21.4495 5.13883C21.311 4.97522 21.1319 4.79723 20.9513 4.61661L19.5371 6.03083C19.7412 6.235 19.8507 6.3456 19.9232 6.43117C19.9869 6.50644 19.9644 6.49746 19.9453 6.43901L21.8461 5.81708ZM21.8985 6.86871C21.9753 6.51978 21.9572 6.15665 21.8461 5.81708L19.9453 6.43902L19.9452 6.43902L21.8985 6.86871ZM21.1276 8.15226C21.2894 7.95457 21.4499 7.75964 21.5714 7.58306C21.7007 7.39536 21.834 7.1622 21.8985 6.86872L19.9453 6.43901C19.9585 6.37895 19.98 6.36778 19.924 6.44901C19.8605 6.54137 19.7625 6.66232 19.5797 6.88579L21.1276 8.15226ZM20.3746 9.07256C20.3749 9.20098 20.3153 9.21984 20.4505 9.01733C20.5803 8.82303 20.7876 8.56781 21.1276 8.15226L19.5797 6.88579C19.2665 7.26858 18.984 7.61213 18.7873 7.90654C18.5962 8.19275 18.3736 8.59029 18.3747 9.07689L20.3746 9.07256ZM20.3746 9.07257V9.07256L18.3747 9.07689C18.3758 9.60432 18.5852 10.11 18.9574 10.4837L20.3746 9.07257ZM21.5579 9.19089C21.0236 9.13746 20.6965 9.10361 20.4673 9.05798C20.2285 9.01042 20.284 8.98156 20.3746 9.07256L18.9574 10.4837C19.3007 10.8285 19.7392 10.9523 20.0768 11.0195C20.424 11.0886 20.8667 11.1317 21.3588 11.181L21.5579 9.19089ZM23.0106 9.55338C22.7575 9.39151 22.4983 9.3209 22.2742 9.27954C22.0634 9.24063 21.812 9.2163 21.5579 9.19089L21.3588 11.181C21.6462 11.2097 21.8009 11.226 21.9112 11.2463C22.0082 11.2642 21.9851 11.2715 21.9333 11.2384L23.0106 9.55338ZM23.7171 10.334C23.5556 10.0154 23.3116 9.74584 23.0106 9.55338L21.9333 11.2384L21.9333 11.2384L23.7171 10.334ZM23.9333 11.8157C23.9333 11.5602 23.9341 11.3077 23.9163 11.0941C23.8975 10.867 23.853 10.6021 23.7171 10.334L21.9333 11.2384C21.9055 11.1835 21.915 11.1613 21.9232 11.2596C21.9325 11.3713 21.9333 11.5269 21.9333 11.8157H23.9333ZM23.9333 13.1846V11.8157H21.9333V13.1846H23.9333ZM23.7172 14.6659C23.853 14.3979 23.8975 14.1331 23.9163 13.9061C23.9341 13.6925 23.9333 13.44 23.9333 13.1846H21.9333C21.9333 13.4733 21.9325 13.6289 21.9232 13.7406C21.915 13.8389 21.9055 13.8166 21.9333 13.7618L23.7172 14.6659ZM23.0104 15.4469C23.3116 15.2544 23.5556 14.9847 23.7172 14.6659L21.9333 13.7618L21.9333 13.7618L23.0104 15.4469ZM21.558 15.8093C21.8121 15.7839 22.0634 15.7595 22.2742 15.7206C22.4982 15.6793 22.7573 15.6087 23.0105 15.4469L21.9333 13.7618C21.9851 13.7286 22.0082 13.7359 21.9112 13.7538C21.8009 13.7742 21.6462 13.7905 21.3589 13.8192L21.558 15.8093ZM20.3751 15.9276C20.2844 16.0185 20.229 15.9897 20.4677 15.9421C20.6968 15.8965 21.0238 15.8627 21.558 15.8093L21.3589 13.8192C20.8669 13.8684 20.4243 13.9115 20.0772 13.9806C19.7398 14.0478 19.3014 14.1715 18.9581 14.5161L20.3751 15.9276ZM20.3751 15.9276V15.9276L18.9581 14.5161C18.5857 14.89 18.3761 15.3959 18.3751 15.9237L20.3751 15.9276ZM21.1278 16.8476C20.7879 16.4321 20.5806 16.177 20.4509 15.9828C20.3157 15.7803 20.3753 15.7992 20.3751 15.9276L18.3751 15.9237C18.3741 16.4101 18.5966 16.8075 18.7877 17.0936C18.9843 17.3879 19.2668 17.7314 19.5799 18.114L21.1278 16.8476ZM21.061 16.7737L21.0609 16.7737L19.6467 18.1879L19.6467 18.1879L21.061 16.7737ZM21.8985 18.1307C21.8339 17.8373 21.7007 17.6042 21.5715 17.4166C21.45 17.2401 21.2895 17.0452 21.1278 16.8476L19.5799 18.114C19.7627 18.3374 19.8605 18.4583 19.9241 18.5507C19.98 18.6319 19.9585 18.6207 19.9453 18.5607L21.8985 18.1307ZM21.8461 19.1829C21.9573 18.8431 21.9754 18.4798 21.8985 18.1307L19.9453 18.5607L19.9453 18.5607L21.8461 19.1829ZM20.9515 20.3829C21.132 20.2024 21.3111 20.0244 21.4496 19.8609C21.5968 19.687 21.7526 19.4684 21.8461 19.1829L19.9453 18.5607C19.9644 18.5022 19.9869 18.4933 19.9232 18.5685C19.8508 18.6541 19.7414 18.7646 19.5372 18.9687L20.9515 20.3829ZM19.9834 21.351L20.9515 20.3829L19.5372 18.9687L18.5692 19.9368L19.9834 21.351ZM18.783 22.2458C19.0686 22.1523 19.2873 21.9965 19.4612 21.8492C19.6248 21.7107 19.8028 21.5316 19.9834 21.351L18.5692 19.9368C18.365 20.1409 18.2544 20.2504 18.1689 20.3229C18.0936 20.3866 18.1026 20.3641 18.161 20.345L18.783 22.2458ZM17.7313 22.2982C18.0802 22.375 18.4434 22.3569 18.783 22.2458L18.161 20.345L18.161 20.345L17.7313 22.2982ZM16.4478 21.5273C16.6455 21.6891 16.8404 21.8496 17.017 21.9711C17.2047 22.1004 17.4378 22.2337 17.7313 22.2982L18.161 20.345C18.2211 20.3582 18.2323 20.3797 18.151 20.3238C18.0587 20.2602 17.9377 20.1623 17.7143 19.9794L16.4478 21.5273ZM15.5275 20.7744C15.3991 20.7747 15.3802 20.715 15.5827 20.8502C15.777 20.98 16.0322 21.1873 16.4478 21.5273L17.7143 19.9794C17.3315 19.6662 16.9879 19.3837 16.6935 19.1871C16.4073 18.9959 16.0098 18.7733 15.5232 18.7744L15.5275 20.7744ZM15.5275 20.7744H15.5275L15.5232 18.7744C14.9957 18.7755 14.4901 18.985 14.1163 19.3571L15.5275 20.7744ZM15.4092 21.9578C15.4626 21.4235 15.4964 21.0963 15.5421 20.8671C15.5896 20.6282 15.6185 20.6838 15.5275 20.7744L14.1163 19.3571C13.7715 19.7005 13.6478 20.139 13.5806 20.4765C13.5114 20.8238 13.4683 21.2665 13.4191 21.7588L15.4092 21.9578ZM15.0465 23.411C15.2085 23.1577 15.2791 22.8985 15.3205 22.6743C15.3594 22.4635 15.3837 22.212 15.4092 21.9578L13.4191 21.7588C13.3903 22.0462 13.3741 22.201 13.3537 22.3113C13.3358 22.4084 13.3285 22.3853 13.3616 22.3334L15.0465 23.411ZM14.2662 24.1172C14.5847 23.9557 14.8541 23.7118 15.0465 23.411L13.3616 22.3334L13.3616 22.3334L14.2662 24.1172ZM12.7842 24.3334C13.0397 24.3334 13.2923 24.3342 13.506 24.3165C13.7331 24.2976 13.9981 24.2531 14.2662 24.1172L13.3616 22.3334C13.4165 22.3056 13.4387 22.3152 13.3404 22.3233C13.2287 22.3326 13.073 22.3334 12.7842 22.3334V24.3334ZM11.4155 24.3334H12.7842V22.3334H11.4155V24.3334ZM9.93391 24.1173C10.2019 24.2532 10.4668 24.2976 10.6939 24.3165C10.9076 24.3342 11.1601 24.3334 11.4155 24.3334V22.3334C11.1268 22.3334 10.9712 22.3326 10.8594 22.3233C10.7611 22.3152 10.7834 22.3056 10.8383 22.3334L9.93391 24.1173ZM9.15324 23.4108C9.34569 23.7118 9.61525 23.9557 9.93391 24.1173L10.8383 22.3334L10.8383 22.3334L9.15324 23.4108ZM8.79074 21.958C8.81616 22.2122 8.84049 22.4635 8.8794 22.6743C8.92076 22.8984 8.99136 23.1576 9.15323 23.4108L10.8383 22.3334C10.8714 22.3852 10.8641 22.4083 10.8462 22.3113C10.8258 22.2011 10.8095 22.0463 10.7808 21.759L8.79074 21.958ZM8.67242 20.7748C8.58142 20.6842 8.61027 20.6287 8.65783 20.8675C8.70347 21.0967 8.73732 21.4237 8.79074 21.958L10.7808 21.759C10.7316 21.2669 10.6885 20.8241 10.6193 20.4769C10.5521 20.1393 10.4284 19.7008 10.0835 19.3575L8.67242 20.7748ZM8.67242 20.7748H8.67242L10.0835 19.3575C9.7098 18.9854 9.20419 18.776 8.67678 18.7748L8.67242 20.7748ZM7.75209 21.5278C8.16765 21.1878 8.42288 20.9804 8.61719 20.8507C8.8197 20.7154 8.80084 20.7751 8.67242 20.7748L8.67678 18.7748C8.19017 18.7737 7.79262 18.9963 7.5064 19.1875C7.21197 19.3841 6.86842 19.6667 6.48561 19.9799L7.75209 21.5278ZM7.76077 21.5206L7.76079 21.5206L6.47691 19.9871L6.47689 19.9871L7.76077 21.5206ZM6.46848 22.2987C6.76197 22.2342 6.99515 22.1009 7.18285 21.9716C7.35944 21.8501 7.55437 21.6896 7.75207 21.5278L6.4856 19.9799C6.26212 20.1627 6.14118 20.2607 6.04881 20.3242C5.96758 20.3802 5.97875 20.3587 6.03882 20.3454L6.46848 22.2987ZM5.41692 22.2463C5.75647 22.3574 6.11957 22.3755 6.46848 22.2987L6.03882 20.3454L6.03882 20.3454L5.41692 22.2463ZM4.2164 21.3515C4.39703 21.5321 4.57502 21.7112 4.73864 21.8497C4.91256 21.997 5.13131 22.1529 5.41692 22.2463L6.03882 20.3454C6.09727 20.3646 6.10625 20.3871 6.03098 20.3234C5.9454 20.2509 5.83479 20.1414 5.63062 19.9372L4.2164 21.3515ZM3.24851 20.3836L4.2164 21.3515L5.63062 19.9372L4.66272 18.9694L3.24851 20.3836ZM2.35369 19.1831C2.44713 19.4687 2.60299 19.6874 2.75024 19.8613C2.88876 20.025 3.06789 20.2029 3.24851 20.3836L4.66272 18.9694C4.45855 18.7652 4.34908 18.6546 4.27663 18.569C4.2129 18.4937 4.23541 18.5027 4.25453 18.5612L2.35369 19.1831ZM2.30124 18.1315C2.22448 18.4804 2.24259 18.8435 2.35369 19.1831L4.25453 18.5612L2.30124 18.1315ZM3.07217 16.8479C2.91042 17.0456 2.74989 17.2405 2.62834 17.4171C2.49912 17.6048 2.3658 17.838 2.30124 18.1315L4.25453 18.5612C4.24132 18.6212 4.21982 18.6324 4.27574 18.5512C4.33932 18.4588 4.43724 18.3378 4.62009 18.1144L3.07217 16.8479ZM3.82515 15.9276C3.82488 15.7992 3.88455 15.7803 3.74929 15.9828C3.61952 16.1771 3.41217 16.4323 3.07217 16.8479L4.62009 18.1144C4.93328 17.7316 5.21583 17.388 5.41246 17.0936C5.60361 16.8074 5.8262 16.4099 5.82515 15.9233L3.82515 15.9276ZM3.82515 15.9276H3.82515L5.82515 15.9233C5.82401 15.3958 5.61457 14.8902 5.24241 14.5164L3.82515 15.9276ZM2.64198 15.8093C3.17623 15.8627 3.50331 15.8965 3.73246 15.9422C3.97129 15.9897 3.91576 16.0186 3.82515 15.9276L5.24241 14.5164C4.89908 14.1716 4.46059 14.0479 4.12305 13.9807C3.77583 13.9115 3.33312 13.8684 2.84099 13.8192L2.64198 15.8093ZM2.74148 15.8142H2.74149V13.8142H2.74148V15.8142ZM1.18927 15.4468C1.44244 15.6087 1.70158 15.6793 1.92567 15.7206C2.13648 15.7595 2.38781 15.7839 2.64197 15.8093L2.84098 13.8192C2.55369 13.7905 2.39893 13.7742 2.28867 13.7538C2.19169 13.7359 2.21479 13.7286 2.2666 13.7618L1.18927 15.4468ZM0.482727 14.6661C0.644278 14.9848 0.888248 15.2543 1.18927 15.4468L2.2666 13.7618H2.2666L0.482727 14.6661ZM0.266602 13.1845C0.266602 13.4399 0.265801 13.6924 0.283539 13.9061C0.302394 14.1332 0.346857 14.3981 0.482727 14.6661L2.2666 13.7618C2.29441 13.8166 2.28484 13.8389 2.27668 13.7406C2.2674 13.6288 2.2666 13.4732 2.2666 13.1845H0.266602ZM0.266602 11.8158V13.1845H2.2666V11.8158H0.266602ZM0.482826 10.3339C0.346894 10.602 0.302411 10.8669 0.283546 11.094C0.2658 11.3077 0.266602 11.5603 0.266602 11.8158H2.2666C2.2666 11.527 2.2674 11.3713 2.27668 11.2596C2.28485 11.1613 2.29442 11.1835 2.2666 11.2384L0.482826 10.3339ZM1.18909 9.55348C0.888211 9.74589 0.644345 10.0154 0.482825 10.3339L2.2666 11.2384L2.2666 11.2384L1.18909 9.55348ZM2.64212 9.19087C2.38789 9.2163 2.13649 9.24063 1.92564 9.27955C1.7015 9.32092 1.4423 9.39155 1.18908 9.55348L2.2666 11.2384C2.21478 11.2715 2.19167 11.2642 2.28867 11.2463C2.39896 11.226 2.55375 11.2097 2.84112 11.1809L2.64212 9.19087ZM3.82556 9.07253C3.91617 8.9815 3.97173 9.01036 3.73285 9.05794C3.50365 9.10358 3.17649 9.13744 2.64212 9.19087L2.84112 11.1809C3.33337 11.1317 3.77618 11.0886 4.12348 11.0194C4.4611 10.9522 4.89968 10.8284 5.24304 10.4835L3.82556 9.07253ZM3.82556 9.07253L3.82556 9.07253L5.24304 10.4835C5.61498 10.1098 5.82433 9.60438 5.82555 9.07716L3.82556 9.07253ZM3.07236 8.15195C3.41245 8.56762 3.61987 8.82292 3.74967 9.01728C3.88496 9.21985 3.82526 9.20098 3.82556 9.07253L5.82555 9.07716C5.82668 8.59044 5.60405 8.19279 5.41286 7.90651C5.21618 7.61202 4.93356 7.26839 4.62028 6.88548L3.07236 8.15195ZM2.30122 6.86792C2.36576 7.16151 2.49912 7.39477 2.62837 7.58254C2.74997 7.75918 2.91055 7.95418 3.07236 8.15195L4.62028 6.88548C4.43737 6.66192 4.33941 6.54093 4.2758 6.44853C4.21986 6.36726 4.24137 6.37843 4.25458 6.43852L2.30122 6.86792ZM2.35364 5.81689C2.24266 6.15627 2.22456 6.51918 2.30122 6.86792L4.25458 6.43852V6.43852L2.35364 5.81689ZM3.24869 4.61599C3.06801 4.79667 2.88883 4.97472 2.75027 5.13838C2.60298 5.31235 2.44707 5.53118 2.35364 5.81689L4.25458 6.43852C4.23546 6.49699 4.21294 6.50597 4.27669 6.43068C4.34916 6.34508 4.45867 6.23444 4.6629 6.0302L3.24869 4.61599ZM4.21645 3.64822L3.24869 4.61599L4.6629 6.0302L5.63067 5.06244L4.21645 3.64822ZM5.41697 2.75338C5.13136 2.84683 4.91261 3.00269 4.73869 3.14994C4.57508 3.28847 4.39708 3.4676 4.21645 3.64822L5.63067 5.06244C5.83484 4.85826 5.94545 4.74879 6.03103 4.67633C6.1063 4.6126 6.09732 4.63511 6.03887 4.65424L5.41697 2.75338ZM6.46854 2.70094C6.11962 2.62419 5.75652 2.6423 5.41697 2.75338L6.03887 4.65424L6.46854 2.70094ZM7.75222 3.47195C7.55449 3.31017 7.35953 3.14963 7.18294 3.02806C6.99523 2.89884 6.76204 2.7655 6.46854 2.70094L6.03887 4.65424C5.97879 4.64102 5.96762 4.61951 6.04888 4.67546C6.14126 4.73905 6.26224 4.83699 6.48574 5.01986L7.75222 3.47195ZM8.67247 4.22488C8.80088 4.22462 8.81973 4.28428 8.61721 4.14901C8.42292 4.01924 8.16772 3.81191 7.75222 3.47195L6.48574 5.01986C6.8685 5.33303 7.212 5.61553 7.50636 5.81215C7.7925 6.00326 8.18995 6.22584 8.67645 6.22488L8.67247 4.22488ZM8.67247 4.22488L8.67247 4.22488L8.67645 6.22488C9.20412 6.22383 9.71 6.01428 10.0839 5.64191L8.67247 4.22488ZM8.79076 3.04199C8.73735 3.57611 8.70351 3.90311 8.65789 4.13221C8.61035 4.37099 8.5815 4.31548 8.67247 4.22488L10.0839 5.6419C10.4285 5.2986 10.5522 4.86022 10.6194 4.52275C10.6885 4.17561 10.7316 3.73302 10.7808 3.241L8.79076 3.04199ZM9.1531 1.5896C8.9913 1.84273 8.92073 2.10182 8.87938 2.32585C8.84049 2.53661 8.81617 2.78789 8.79076 3.04199L10.7808 3.241C10.8096 2.95377 10.8258 2.79905 10.8462 2.68881C10.8641 2.59185 10.8714 2.61494 10.8383 2.66675L9.1531 1.5896ZM9.93414 0.882773C9.61531 1.04436 9.3456 1.28843 9.1531 1.5896L10.8383 2.66675L10.8383 2.66675L9.93414 0.882773ZM11.4154 0.666748C11.16 0.666748 10.9076 0.665948 10.694 0.683677C10.4669 0.702524 10.2021 0.746965 9.93414 0.882772L10.8383 2.66675C10.7834 2.69454 10.7612 2.68498 10.8594 2.67682C10.9711 2.66755 11.1267 2.66675 11.4154 2.66675V0.666748ZM12.7844 0.666748H11.4154V2.66675H12.7844V0.666748ZM14.2659 0.882876C13.9979 0.747004 13.733 0.702541 13.5059 0.683685C13.2923 0.665947 13.0398 0.666748 12.7844 0.666748V2.66675C13.0731 2.66675 13.2287 2.66755 13.3404 2.67683C13.4387 2.68499 13.4165 2.69456 13.3616 2.66675L14.2659 0.882876ZM15.0467 1.58941C14.8542 1.28839 14.5846 1.04443 14.2659 0.882875L13.3616 2.66675L13.3616 2.66675L15.0467 1.58941ZM15.4333 12.5001C15.4333 14.341 13.9409 15.8334 12.0999 15.8334V17.8334C15.0455 17.8334 17.4333 15.4456 17.4333 12.5001H15.4333ZM12.0999 9.16675C13.9409 9.16675 15.4333 10.6591 15.4333 12.5001H17.4333C17.4333 9.55456 15.0455 7.16675 12.0999 7.16675V9.16675ZM8.7666 12.5001C8.7666 10.6591 10.259 9.16675 12.0999 9.16675V7.16675C9.15442 7.16675 6.7666 9.55456 6.7666 12.5001H8.7666ZM12.0999 15.8334C10.259 15.8334 8.7666 14.341 8.7666 12.5001H6.7666C6.7666 15.4456 9.15442 17.8334 12.0999 17.8334V15.8334Z" fill="currentColor"/>
</svg>
