<svg width="27" height="27" viewBox="0 0 27 27" fill="none" xmlns="http://www.w3.org/2000/svg">
<path fill-rule="evenodd" clip-rule="evenodd" d="M19.3991 7.78C19.3991 10.6961 17.0351 13.06 14.1191 13.06C11.203 13.06 8.83908 10.6961 8.83908 7.78C8.83908 4.86394 11.203 2.5 14.1191 2.5C17.0351 2.5 19.3991 4.86394 19.3991 7.78ZM17.0239 14.4574C19.5989 13.3356 21.3991 10.768 21.3991 7.78C21.3991 3.75937 18.1397 0.5 14.1191 0.5C10.0984 0.5 6.83908 3.75937 6.83908 7.78C6.83908 10.6325 8.47968 13.1019 10.8688 14.2959C5.66711 15.3636 1.61876 19.4186 0.766142 24.5C0.65688 25.1512 0.600098 25.8192 0.600098 26.5L2.6001 26.5H24.6001L26.6001 26.5C26.6001 25.8192 26.5433 25.1512 26.4341 24.5C25.6197 19.6464 21.8897 15.7293 17.0239 14.4574ZM13.6001 16.02C19.018 16.02 23.4234 19.7171 24.3986 24.5H2.80157C3.77678 19.7171 8.18223 16.02 13.6001 16.02Z" fill="black"/>
</svg>
